:SAMPLES-PER-SECOND 30
:FULLY-SPECIFIED
:DEGREES
1
root  68.7679 40.529 4.86095 -173.272 -80.1686 173.024
RightUpLeg  2.5198 -8.70147 -6.07503
RightLeg  3.51425 -7.73935 3.53757
RightFoot  -3.50441 -0.0283324 0.0280153
RightToes  -1.16417e-010 0 -3.6325e-017
Spine  3.67806 1.57868 -3.44746
Spine1  2.85649 0.960113 3.41959
HEad  -6.04871 -5.74234 4.33674
LeftShoulder1  1.56326 -3.09416 -16.9235
LeftArm  -18.7313 15.1618 -6.50208
LeftForeArm  14.7964 -3.73224 -0.685842
LeftHand  -0.244104 0.0205437 5.32207
RightShoulder  0.475005 -0.966259 11.5822
RightArm  -29.0024 -1.69448 3.27084
RightForeArm  2.30075 3.86493 0.832313
RightHand  -1.82254 6.4475 -18.0456
LeftUpLeg  2.37518 5.16413 3.22924
LeftLeg  0.504144 14.1882 -4.021
LeftFoot  -1.1327 -0.0137811 0.149201
LeftToes  4.18335e-011 -7.14095e-012 4.81992e-012
2
root  68.761 40.529 4.86679 -173.294 -80.1585 173.064
RightUpLeg  2.5025 -8.69464 -6.07301
RightLeg  3.51061 -7.72248 3.53541
RightFoot  -3.49252 -0.0287021 0.0337555
RightToes  -1.16417e-010 0 -3.6325e-017
Spine  3.35719 1.50938 -3.38759
Spine1  3.34729 0.898518 3.36159
HEad  -6.07733 -5.5269 4.32552
LeftShoulder1  1.53762 -2.97636 -16.9582
LeftArm  -18.7987 15.0332 -6.54117
LeftForeArm  14.7551 -3.72049 -0.678897
LeftHand  -0.244104 0.0205437 5.32207
RightShoulder  0.506107 -0.771158 11.3629
RightArm  -28.9724 -1.75378 3.44306
RightForeArm  1.6783 3.87155 0.873746
RightHand  -1.81886 6.23663 -18.3242
LeftUpLeg  2.359 5.19406 3.2427
LeftLeg  0.532163 14.1756 -4.04739
LeftFoot  -1.17148 -0.0152482 0.172002
LeftToes  4.18335e-011 -7.14095e-012 4.81992e-012
3
root  68.7493 40.529 4.87817 -173.396 -80.1285 173.185
RightUpLeg  2.50011 -8.68518 -6.07071
RightLeg  3.49251 -7.70128 3.53426
RightFoot  -3.47892 -0.0290173 0.0386495
RightToes  -1.16417e-010 0 -3.6325e-017
Spine  3.03235 1.45259 -3.33595
Spine1  3.87159 0.843738 3.32441
HEad  -6.13336 -5.41915 4.29699
LeftShoulder1  1.51234 -2.85711 -17.006
LeftArm  -18.8762 14.8804 -6.58529
LeftForeArm  14.7399 -3.74922 -0.677873
LeftHand  -0.244104 0.0205437 5.32207
RightShoulder  0.518239 -0.675836 11.1449
RightArm  -28.8905 -1.68737 3.60593
RightForeArm  0.672219 3.89436 0.968613
RightHand  -1.80005 5.83404 -18.7622
LeftUpLeg  2.3411 5.20475 3.24234
LeftLeg  0.574239 14.2057 -4.04534
LeftFoot  -1.22425 -0.017316 0.204137
LeftToes  4.18335e-011 -7.14095e-012 4.81992e-012
4
root  68.7369 40.529 4.89189 -173.458 -80.0917 173.233
RightUpLeg  2.53693 -8.69887 -6.1004
RightLeg  3.47196 -7.65495 3.54102
RightFoot  -3.48113 -0.0295595 0.0470686
RightToes  -1.16417e-010 0 -3.6325e-017
Spine  3.03794 1.48808 -3.42518
Spine1  3.91737 0.842669 3.48235
HEad  -6.20417 -5.48133 4.26073
LeftShoulder1  1.52641 -2.88575 -17.1289
LeftArm  -18.863 14.8255 -6.5322
LeftForeArm  14.7758 -3.79122 -0.691783
LeftHand  -0.244104 0.0205437 5.32207
RightShoulder  0.478631 -0.868555 10.9629
RightArm  -28.8589 -1.50518 3.71807
RightForeArm  0.308493 3.97081 1.03576
RightHand  -1.76395 5.51023 -18.9205
LeftUpLeg  2.38073 5.14538 3.18897
LeftLeg  0.552366 14.3028 -3.99402
LeftFoot  -1.23395 -0.0170331 0.199741
LeftToes  4.18335e-011 -7.14095e-012 4.81992e-012
5
root  68.7228 40.529 4.90666 -173.331 -80.083 173.056
RightUpLeg  2.61423 -8.75743 -6.19289
RightLeg  3.46985 -7.56472 3.56658
RightFoot  -3.49441 -0.0317594 0.0812234
RightToes  -1.16417e-010 0 -3.6325e-017
Spine  3.22688 1.54775 -3.59654
Spine1  3.67947 0.853877 3.70873
HEad  -6.29354 -5.46279 4.29289
LeftShoulder1  1.56594 -3.01554 -17.2744
LeftArm  -18.7832 14.8651 -6.40374
LeftForeArm  14.7694 -3.7975 -0.708438
LeftHand  -0.244104 0.0205437 5.32207
RightShoulder  0.440101 -1.06003 10.794
RightArm  -28.9037 -1.43706 3.78493
RightForeArm  0.588367 4.09819 1.04418
RightHand  -1.74176 5.44205 -18.8041
LeftUpLeg  2.49819 5.04289 3.08748
LeftLeg  0.439954 14.4044 -3.94542
LeftFoot  -1.195 -0.0160299 0.184149
LeftToes  4.18335e-011 -7.14095e-012 4.81992e-012
6
root  68.7064 40.529 4.92161 -173.132 -80.0983 172.813
RightUpLeg  2.69223 -8.834 -6.30337
RightLeg  3.46943 -7.47838 3.60534
RightFoot  -3.50422 -0.033545 0.108946
RightToes  -1.16417e-010 0 -3.6325e-017
Spine  3.27523 1.53639 -3.65498
Spine1  3.61894 0.841373 3.71457
HEad  -6.39256 -5.33187 4.42159
LeftShoulder1  1.57891 -3.07102 -17.2698
LeftArm  -18.7907 14.9213 -6.38055
LeftForeArm  14.6639 -3.80083 -0.699644
LeftHand  -0.244104 0.0205437 5.32207
RightShoulder  0.452934 -0.987408 10.7807
RightArm  -28.9683 -1.52928 3.72036
RightForeArm  0.793777 4.20085 1.03084
RightHand  -1.7581 5.58141 -18.7434
LeftUpLeg  2.60817 4.99079 3.00947
LeftLeg  0.340113 14.4353 -3.95569
LeftFoot  -1.16444 -0.0191671 0.232905
LeftToes  4.18335e-011 -7.14095e-012 4.81992e-012
7
root  68.6915 40.529 4.93568 -173.135 -80.0997 172.819
RightUpLeg  2.72196 -8.87396 -6.35002
RightLeg  3.4552 -7.44792 3.63687
RightFoot  -3.50752 -0.0317605 0.0812404
RightToes  -1.16417e-010 0 -3.6325e-017
Spine  3.16192 1.48311 -3.58
Spine1  3.76906 0.822218 3.55262
HEad  -6.46563 -5.2978 4.51413
LeftShoulder1  1.55376 -2.99901 -17.1375
LeftArm  -18.9354 14.9574 -6.52384
LeftForeArm  14.512 -3.87654 -0.666366
LeftHand  -0.244104 0.0205437 5.32207
RightShoulder  0.487191 -0.814285 10.912
RightArm  -29.0742 -1.60114 3.56544
RightForeArm  0.933997 4.19959 0.987884
RightHand  -1.79105 5.76745 -18.7783
LeftUpLeg  2.61203 5.04802 3.02259
LeftLeg  0.373458 14.3794 -4.02067
LeftFoot  -1.19057 -0.0271128 0.356387
LeftToes  4.18335e-011 -7.14095e-012 4.81992e-012
8
root  68.6809 40.529 4.94821 -173.37 -80.1014 173.085
RightUpLeg  2.72103 -8.86654 -6.32399
RightLeg  3.4245 -7.46268 3.65185
RightFoot  -3.50183 -0.0290874 0.0397387
RightToes  -1.16417e-010 0 -3.6325e-017
Spine  3.12149 1.4609 -3.55105
Spine1  3.81228 0.799789 3.54859
HEad  -6.50978 -5.39599 4.46264
LeftShoulder1  1.53787 -2.9332 -17.1328
LeftArm  -19.0487 15.0227 -6.61706
LeftForeArm  14.3467 -4.02107 -0.650798
LeftHand  -0.244104 0.0205437 5.32207
RightShoulder  0.4895 -0.802712 10.9194
RightArm  -29.2713 -1.56216 3.52769
RightForeArm  1.50283 4.08576 0.87732
RightHand  -1.80295 5.90232 -18.6826
LeftUpLeg  2.53712 5.16467 3.10329
LeftLeg  0.506986 14.2642 -4.08992
LeftFoot  -1.2549 -0.0350724 0.48009
LeftToes  4.18335e-011 -7.14095e-012 4.81992e-012
9
root  68.6724 40.529 4.95958 -173.585 -80.1536 173.318
RightUpLeg  2.74662 -8.854 -6.2949
RightLeg  3.37443 -7.49849 3.66419
RightFoot  -3.48089 -0.0303538 0.0593998
RightToes  -1.16417e-010 0 -3.6325e-017
Spine  3.18643 1.43533 -3.62917
Spine1  3.71586 0.732354 3.72977
HEad  -6.55748 -5.4303 4.37627
LeftShoulder1  1.55887 -2.96514 -17.3565
LeftArm  -19.0222 15.1584 -6.4784
LeftForeArm  14.1629 -4.14747 -0.661668
LeftHand  -0.244104 0.0205437 5.32207
RightShoulder  0.47382 -0.862458 10.7167
RightArm  -29.4459 -1.51028 3.66271
RightForeArm  2.04618 3.91957 0.762925
RightHand  -1.79363 5.94253 -18.526
LeftUpLeg  2.48121 5.24497 3.16638
LeftLeg  0.612189 14.1363 -4.12566
LeftFoot  -1.31251 -0.0392971 0.545749
LeftToes  4.18335e-011 -7.14095e-012 4.81992e-012
10
root  68.6642 40.5287 4.97129 -173.596 -80.2208 173.338
RightUpLeg  2.779 -8.87135 -6.31494
RightLeg  3.33451 -7.53329 3.6837
RightFoot  -3.46586 -0.0338894 0.114294
RightToes  -1.16417e-010 0 -3.6325e-017
Spine  3.15864 1.35241 -3.68252
Spine1  3.74557 0.630716 3.79735
HEad  -6.58706 -5.35568 4.38795
LeftShoulder1  1.58469 -3.01365 -17.5919
LeftArm  -19.0473 15.3187 -6.28413
LeftForeArm  14.0928 -4.21274 -0.629094
LeftHand  -0.244104 0.0205437 5.32207
RightShoulder  0.485895 -0.7744 10.5649
RightArm  -29.4475 -1.52576 3.78253
RightForeArm  1.66798 3.78929 0.754392
RightHand  -1.78849 5.85982 -18.6051
LeftUpLeg  2.45547 5.25412 3.16224
LeftLeg  0.657432 14.0767 -4.12606
LeftFoot  -1.35043 -0.040125 0.558614
LeftToes  4.18335e-011 -7.14095e-012 4.81992e-012
